<?xml version="1.0" encoding="UTF-8" standalone="no"?>
<!-- Created with Inkscape (http://www.inkscape.org/) -->

<svg
   xmlns:dc="http://purl.org/dc/elements/1.1/"
   xmlns:cc="http://creativecommons.org/ns#"
   xmlns:rdf="http://www.w3.org/1999/02/22-rdf-syntax-ns#"
   xmlns:svg="http://www.w3.org/2000/svg"
   xmlns="http://www.w3.org/2000/svg"
   xmlns:sodipodi="http://sodipodi.sourceforge.net/DTD/sodipodi-0.dtd"
   xmlns:inkscape="http://www.inkscape.org/namespaces/inkscape"
   width="119.62414mm"
   height="123.20808mm"
   viewBox="0 0 119.62414 123.20808"
   version="1.1"
   id="svg8722"
   inkscape:version="0.92.2 (5c3e80d, 2017-08-06)"
   sodipodi:docname="crowd.svg">
  <defs
     id="defs8716" />
  <sodipodi:namedview
     id="base"
     pagecolor="#ffffff"
     bordercolor="#666666"
     borderopacity="1.0"
     inkscape:pageopacity="0.0"
     inkscape:pageshadow="2"
     inkscape:zoom="0.50679844"
     inkscape:cx="185.60675"
     inkscape:cy="138.22332"
     inkscape:document-units="mm"
     inkscape:current-layer="layer1"
     showgrid="false"
     inkscape:window-width="1080"
     inkscape:window-height="675"
     inkscape:window-x="95"
     inkscape:window-y="131"
     inkscape:window-maximized="0"
     fit-margin-top="0"
     fit-margin-left="0"
     fit-margin-right="0"
     fit-margin-bottom="0" />
  <metadata
     id="metadata8719">
    <rdf:RDF>
      <cc:Work
         rdf:about="">
        <dc:format>image/svg+xml</dc:format>
        <dc:type
           rdf:resource="http://purl.org/dc/dcmitype/StillImage" />
        <dc:title />
      </cc:Work>
    </rdf:RDF>
  </metadata>
  <g
     inkscape:label="Layer 1"
     inkscape:groupmode="layer"
     id="layer1"
     transform="translate(-33.02038,-30.029258)">
    <g
       id="g9709"
       transform="translate(32.368226,29.757885)"
       style="fill:#ffffff;fill-opacity:1;stroke:#000000;stroke-width:4;stroke-miterlimit:4;stroke-dasharray:none;stroke-opacity:1">
      <g
         id="g9698"
         style="fill:#ffffff;fill-opacity:1;stroke:#000000;stroke-width:4;stroke-miterlimit:4;stroke-dasharray:none;stroke-opacity:1">
        <path
           style="opacity:1;fill:none;fill-opacity:1;stroke:#000000;stroke-width:15.11811066;stroke-miterlimit:4;stroke-dasharray:none;stroke-opacity:1;paint-order:markers fill stroke"
           d="m 85.639954,137.76464 c -2.103459,0.1986 -4.235163,0.30017 -6.39059,0.30017 -37.081818,-1e-5 -67.142628,-30.06065 -67.142843,-67.14247 3.1e-5,-37.081949 30.060893,-67.1427932 67.142843,-67.1428007 37.081956,0 67.142826,30.0608467 67.142856,67.1428007 0,0.979127 -0.021,1.95336 -0.0625,2.922273"
           id="path9213"
           transform="matrix(0.26458333,0,0,0.26458333,0.652154,0.271373)"
           inkscape:connector-curvature="0" />
        <path
           style="opacity:1;fill:none;fill-opacity:1;stroke:#000000;stroke-width:15.11811066;stroke-miterlimit:4;stroke-dasharray:none;stroke-opacity:1;paint-order:markers fill stroke"
           d="m 85.560728,139.33652 c -1.989444,-0.27131 -3.999121,-0.4108 -6.02564,-0.41361 v 0 c -10.490965,0.0224 -20.529771,3.70782 -29.645876,10.37849"
           id="path9209"
           transform="matrix(0.26458333,0,0,0.26458333,0.652154,0.271373)"
           inkscape:connector-curvature="0" />
        <path
           style="opacity:1;fill:none;fill-opacity:1;stroke:#000000;stroke-width:15.11811066;stroke-miterlimit:4;stroke-dasharray:none;stroke-opacity:1;paint-order:markers fill stroke"
           d="M 160.19295,81.413398 A 67.142856,67.142856 0 0 1 159.36821,70.922339 67.142856,67.142856 0 0 1 226.51107,3.7795279 67.142856,67.142856 0 0 1 293.65375,70.922339 v 0 a 67.142856,67.142856 0 0 1 -1.00246,11.558666"
           id="path9282"
           transform="matrix(0.26458333,0,0,0.26458333,0.652154,0.271373)"
           inkscape:connector-curvature="0" />
        <path
           style="opacity:1;fill:none;fill-opacity:1;stroke:#000000;stroke-width:15.11811066;stroke-miterlimit:4;stroke-dasharray:none;stroke-opacity:1;paint-order:markers fill stroke"
           d="m 240.85866,136.51391 a 67.142856,67.142856 0 0 1 -14.34759,1.5509 67.142856,67.142856 0 0 1 -13.99493,-1.47471"
           id="path9271"
           transform="matrix(0.26458333,0,0,0.26458333,0.652154,0.271373)"
           inkscape:connector-curvature="0" />
        <path
           style="opacity:1;fill:none;fill-opacity:1;stroke:#000000;stroke-width:15.11811066;stroke-miterlimit:4;stroke-dasharray:none;stroke-opacity:1;paint-order:markers fill stroke"
           d="M 306.62993,73.79701 A 67.142857,67.142857 0 0 1 373.77214,6.8381688 67.142857,67.142857 0 0 1 440.91498,73.980937 v 0 a 67.142857,67.142857 0 0 1 -67.14284,67.142473 67.142857,67.142857 0 0 1 -6.7405,-0.33924"
           id="path9254"
           transform="matrix(0.26458333,0,0,0.26458333,0.652154,0.271373)"
           inkscape:connector-curvature="0" />
        <path
           style="opacity:1;fill:none;fill-opacity:1;stroke:#000000;stroke-width:15.11811066;stroke-miterlimit:4;stroke-dasharray:none;stroke-opacity:1;paint-order:markers fill stroke"
           d="m 447.66737,333.05073 v -51.0036 a 74.285715,124.28571 0 0 0 0.67578,-15.78113 74.285715,124.28571 0 0 0 -0.67578,-15.5507 v -3.05861 h -0.22261 A 74.285715,124.28571 0 0 0 374.05802,141.98151 v 0 a 74.285715,124.28571 0 0 1 -7.11787,0.58716"
           id="path9577-3"
           transform="matrix(0.26458333,0,0,0.26458333,0.652154,0.271373)"
           inkscape:connector-curvature="0" />
        <path
           inkscape:connector-curvature="0"
           id="path9577-7-1"
           style="opacity:1;fill:none;fill-opacity:1;stroke:#000000;stroke-width:4;stroke-miterlimit:4;stroke-dasharray:none;stroke-opacity:1;paint-order:markers fill stroke"
           d="M 101.64165,107.59659 V 94.101845 a 19.654762,32.883927 0 0 0 0.1788,-4.17542 19.654762,32.883927 0 0 0 -0.1788,-4.11446 v -0.80925 h -0.0589 A 19.654762,32.883927 0 0 0 82.165829,57.042819 v 0 a 19.654762,32.883927 0 0 0 -19.40812,27.959896 h -0.0791 v 0.87384 a 19.654762,32.883927 0 0 0 -0.16743,4.04987 19.654762,32.883927 0 0 0 0.16743,3.95735 V 107.59659 M 99.855073,39.051 A 17.764881,17.764881 0 0 1 82.090189,56.815777 17.764881,17.764881 0 0 1 64.325309,39.051 17.764881,17.764881 0 0 1 82.090189,21.286219 17.764881,17.764881 0 0 1 99.855073,39.051 Z" />
        <path
           style="opacity:1;fill:none;fill-opacity:1;stroke:#000000;stroke-width:15.11811066;stroke-miterlimit:4;stroke-dasharray:none;stroke-opacity:1;paint-order:markers fill stroke"
           d="m 82.854418,139.45796 a 67.142857,67.142857 0 0 1 66.518872,-58.010332 67.142857,67.142857 0 0 1 67.14285,67.142482 v 0 a 67.142857,67.142857 0 0 1 -67.14285,67.14246 67.142857,67.142857 0 0 1 -0.41479,-0.001"
           id="path9305"
           transform="matrix(0.26458333,0,0,0.26458333,0.652154,0.271373)"
           inkscape:connector-curvature="0" />
        <path
           style="opacity:1;fill:none;fill-opacity:1;stroke:#000000;stroke-width:15.11811066;stroke-miterlimit:4;stroke-dasharray:none;stroke-opacity:1;paint-order:markers fill stroke"
           d="m 223.26853,407.6601 v -51.0038 a 74.285715,124.28571 0 0 0 0.67578,-15.78113 74.285715,124.28571 0 0 0 -0.67578,-15.55071 v -3.0586 h -0.22261 A 74.285715,124.28571 0 0 0 149.65917,216.59068 v 0 a 74.285715,124.28571 0 0 1 -0.84536,0.01"
           id="path9577-7"
           transform="matrix(0.26458333,0,0,0.26458333,0.652154,0.271373)"
           inkscape:connector-curvature="0" />
        <path
           style="opacity:1;fill:none;fill-opacity:1;stroke:#000000;stroke-width:15.11811066;stroke-miterlimit:4;stroke-dasharray:none;stroke-opacity:1;paint-order:markers fill stroke"
           d="M 49.889212,149.3014 C 34.633766,160.46449 21.962318,179.98758 14.080055,204.6938"
           transform="matrix(0.26458333,0,0,0.26458333,0.652154,0.271373)"
           inkscape:connector-curvature="0" />
      </g>
    </g>
  </g>
</svg>
